<?xml version="1.0" encoding="UTF-8" standalone="no"?><!-- Generator: Gravit.io --><svg xmlns="http://www.w3.org/2000/svg" xmlns:xlink="http://www.w3.org/1999/xlink" style="isolation:isolate" viewBox="-285.1 218 1171.2 112" width="1171.2pt" height="112pt"><path d=" M 474.3 257.8 L 436.2 257.8 L 436.2 272.3 L 455.2 272.3 C 455.2 282.4 446.3 288.2 437.3 288.2 C 425.7 288.2 416.3 276.8 416.3 262.8 C 416.3 248.5 425.7 237 437.3 237 C 444.6 237 450.9 239.9 455.7 247.6 L 468 234.1 C 460.8 225.4 450.7 220 436.2 220 C 413 220 396 239.1 396 262.8 C 396 286.4 414 305.5 436.2 305.5 C 452.4 305.5 469.8 296.6 474.3 275.7 L 474.3 257.8 Z  M 478.9 278.4 C 478.9 294.2 491.3 305.5 509.8 305.5 C 527.5 305.5 540.4 294.2 540.4 278.4 C 540.4 262.4 526.8 251.2 509.8 251.2 C 492.5 251.2 478.9 262.4 478.9 278.4 Z  M 497.7 278.4 C 497.7 271.3 503 266.3 509.7 266.3 C 516.3 266.3 521.6 271.3 521.6 278.4 C 521.6 285.4 516.6 290.4 509.7 290.4 C 502.5 290.4 497.7 285.4 497.7 278.4 Z  M 548.7 221.5 L 548.7 304 L 572.6 304 C 595.3 304 614.2 286.8 614.2 262.7 C 614.2 238.7 595.2 221.5 572.6 221.5 L 548.7 221.5 Z  M 567.5 287.2 L 567.5 238.3 L 570.4 238.3 C 584.4 238.3 593.9 249 593.9 262.8 C 593.8 276.6 584.3 287.2 570.4 287.2 L 567.5 287.2 Z  M 618.8 278.4 C 618.8 293.4 629.3 305.5 644.3 305.5 C 651.3 305.5 657.3 302.4 661.1 298.2 L 661.3 298.2 L 661.3 304 L 678.8 304 L 678.8 252.7 L 661.1 252.7 L 661.1 257.6 C 656.9 253.5 651.2 251.2 644.3 251.2 C 629.3 251.2 618.8 263.4 618.8 278.4 Z  M 637.6 278.4 C 637.6 271.3 642.9 266.3 649.6 266.3 C 656.2 266.3 661.5 271.3 661.5 278.4 C 661.5 285.4 656.5 290.4 649.6 290.4 C 642.4 290.4 637.6 285.4 637.6 278.4 Z  M 687.1 278.4 C 687.1 293.4 697.6 305.5 712.6 305.5 C 719.6 305.5 725.6 302.4 729.4 298.2 L 729.6 298.2 L 729.6 304 L 747.1 304 L 747.1 218 L 729.4 218 L 729.4 257.6 C 725.2 253.5 719.5 251.2 712.6 251.2 C 697.6 251.2 687.1 263.4 687.1 278.4 Z  M 705.9 278.4 C 705.9 271.3 711.2 266.3 717.9 266.3 C 724.5 266.3 729.8 271.3 729.8 278.4 C 729.8 285.4 724.8 290.4 717.9 290.4 C 710.7 290.4 705.9 285.4 705.9 278.4 Z  M 755.4 278.4 C 755.4 293.4 765.9 305.5 780.9 305.5 C 787.9 305.5 793.9 302.4 797.7 298.2 L 797.9 298.2 L 797.9 304 L 815.4 304 L 815.4 218 L 797.7 218 L 797.7 257.6 C 793.5 253.5 787.8 251.2 780.9 251.2 C 765.9 251.2 755.4 263.4 755.4 278.4 Z  M 774.2 278.4 C 774.2 271.3 779.5 266.3 786.2 266.3 C 792.8 266.3 798.1 271.3 798.1 278.4 C 798.1 285.4 793.1 290.4 786.2 290.4 C 779 290.4 774.2 285.4 774.2 278.4 Z  M 865.7 252.7 L 853.5 279 L 839.2 252.7 L 818.8 252.7 L 843.1 296 L 825.4 330 L 845.8 330 L 886.1 252.7 L 865.7 252.7 Z  M 300.8 278.4 C 300.8 263.4 290.3 251.2 275.3 251.2 C 268.4 251.2 262.7 253.5 258.5 257.6 L 258.5 218 L 240.8 218 L 240.8 304 L 258.3 304 L 258.3 298.2 L 258.5 298.2 C 262.3 302.4 268.3 305.5 275.3 305.5 C 290.3 305.5 300.8 293.4 300.8 278.4 Z  M 282 278.4 C 282 285.4 277.2 290.4 270 290.4 C 263.1 290.4 258.1 285.4 258.1 278.4 C 258.1 271.3 263.4 266.3 270 266.3 C 276.7 266.3 282 271.3 282 278.4 Z  M 348 252.7 L 335.8 279 L 321.5 252.7 L 301.1 252.7 L 325.4 296 L 307.7 330 L 328.1 330 L 368.4 252.7 L 348 252.7 Z  M -237.9 221.5 L -285.1 221.5 L -285.1 304 L -237.9 304 L -237.9 287.5 L -266.3 287.5 L -266.3 270.9 L -239.1 270.9 L -239.1 254.4 L -266.3 254.4 L -266.3 238 L -237.9 238 L -237.9 221.5 Z  M -227.1 304 L -209.4 304 L -209.4 274 C -209.4 269.9 -207.1 265.4 -201.2 265.4 C -194.9 265.4 -192.2 269.9 -192.2 275 L -192.2 304 L -174.5 304 L -174.5 273.4 C -174.3 269.5 -171.9 265.4 -166.3 265.4 C -160 265.4 -157.3 269.9 -157.3 275 L -157.3 304 L -139.6 304 L -139.6 270.2 C -139.6 255.9 -150.2 251.2 -159.6 251.2 C -165.2 251.2 -171.2 254.1 -176.6 260.6 C -180.2 253.7 -187.7 251.2 -194.5 251.2 C -200.1 251.2 -205.2 254.1 -209.2 258.1 L -209.4 258.1 L -209.4 252.7 L -227.1 252.7 L -227.1 304 Z  M -68.6 278.3 C -68.6 263.3 -79.1 251.2 -94.1 251.2 C -101.1 251.2 -107.1 254.3 -110.9 258.5 L -111.1 258.5 L -111.1 252.7 L -128.6 252.7 L -128.6 330 L -110.9 330 L -110.9 299.1 C -106.7 303.2 -101 305.5 -94.1 305.5 C -79.1 305.5 -68.6 293.3 -68.6 278.3 Z  M -87.4 278.3 C -87.4 285.4 -92.7 290.4 -99.4 290.4 C -106 290.4 -111.3 285.4 -111.3 278.3 C -111.3 271.3 -106.3 266.3 -99.4 266.3 C -92.2 266.3 -87.4 271.3 -87.4 278.3 Z  M -64 278.4 C -64 294.2 -51.6 305.5 -33.1 305.5 C -15.4 305.5 -2.5 294.2 -2.5 278.4 C -2.5 262.4 -16.1 251.2 -33.1 251.2 C -50.4 251.2 -64 262.4 -64 278.4 Z  M -45.2 278.4 C -45.2 271.3 -39.9 266.3 -33.2 266.3 C -26.6 266.3 -21.3 271.3 -21.3 278.4 C -21.3 285.4 -26.3 290.4 -33.2 290.4 C -40.4 290.4 -45.2 285.4 -45.2 278.4 Z  M 36.8 304 L 48.6 277.5 L 60.4 304 L 72.4 304 L 99.9 252.7 L 79.5 252.7 L 67 280.4 L 54.7 252.7 L 42.5 252.7 L 30.2 280.4 L 17.7 252.7 L -2.7 252.7 L 24.8 304 L 36.8 304 Z  M 155.5 280.8 C 155.6 280.2 155.6 279.1 155.6 278.4 C 155.6 260.4 143.7 251.2 128.1 251.2 C 112.6 251.2 99.9 263.4 99.9 278.4 C 99.9 293.3 112.6 305.5 128.1 305.5 C 139.5 305.5 148.9 301.8 154.7 292.1 L 141.9 285.7 C 137.6 290.3 135.1 291.4 129.4 291.4 C 124.9 291.4 118.3 288.7 118.3 280.8 L 155.5 280.8 Z  M 118.8 271 C 119.1 266.3 122.5 262.7 128.6 262.7 C 133.8 262.7 137.5 265.6 138.3 271 L 118.8 271 Z  M 163.7 304 L 181.4 304 L 181.4 277 C 181.4 275.7 182.7 266.6 191.9 266.6 C 197.8 266.6 201.1 269.4 201.1 269.4 L 208.5 254.4 C 208.5 254.4 203.9 251.2 197.3 251.2 C 187.2 251.2 181.6 260.1 181.6 260.1 L 181.4 260.1 L 181.4 252.7 L 163.7 252.7 L 163.7 304 Z " id="Compound Path" fill="rgb(0,0,0)"/></svg>